# xmcd CD database file
# Copyright (C) 1993-1998 Ti Kan
# 
# Track frame offsets:
#     150
#     16195
#     32007
#     58525
#     90217
#     119715
# 
# Disc length: 1825 seconds
# 
# Revision: 1
# Processed by: cddbd v1.4b41PL1 Copyright (c) Steve Scherf et al.
# Submitted via: DiscPlay 4.0.4
# 
DISCID=3f071f06
DTITLE=Alexa - Luka
DYEAR=1900
DGENRE=
TTITLE0=Motorway 7 Edit Dv8 Radio Edit Motorway Club Mix Disco Kings Club Mi
TTITLE0=x 12 Extended Mix
TTITLE1=Original Demo Mix
TTITLE2=
TTITLE3=
TTITLE4=
TTITLE5=
EXTD=
EXTT0=
EXTT1=
EXTT2=
EXTT3=
EXTT4=
EXTT5=
PLAYORDER=
